# xmcd
#
# Track frame offsets: 
#        150
#        17799
#        38248
#        49077
#        64065
#        74971
#        93916
#        110729
#        124878
#        141475
#        156588
#        170545
#        186522
#        199511
#
# Disc length: 2829 seconds
#
# Revision: 0
# Processed by: cddbd v1.4PL0 Copyright (c) Steve Scherf et al.
# Submitted via: ExactAudioCopy v0.90b4
#
DISCID=dd0b0b0e
DTITLE=The Benders - The Benders
DYEAR=2000
DGENRE=Bluegrass
TTITLE0=Cold and Tired
TTITLE1=Endless Highway
TTITLE2=Old Mason's Bridge
TTITLE3=Deeper in the Well
TTITLE4=Stole My Tools
TTITLE5=Highway Eyes
TTITLE6=Pratt Street
TTITLE7=Town That Used To Be
TTITLE8=New Mexican Chainsaw Massacre
TTITLE9=Blue Lightnin'
TTITLE10=10 lb. Baby
TTITLE11=Hangtight
TTITLE12=Banjo in the Rain
TTITLE13=Idiots Talk
EXTD=
EXTT0=
EXTT1=
EXTT2=
EXTT3=
EXTT4=
EXTT5=
EXTT6=
EXTT7=
EXTT8=
EXTT9=
EXTT10=
EXTT11=
EXTT12=
EXTT13=
PLAYORDER=
